<svg xmlns="http://www.w3.org/2000/svg" version="1.1" xmlns:xlink="http://www.w3.org/1999/xlink" xmlns:svgjs="http://svgjs.com/svgjs" width="1366" height="768" preserveAspectRatio="none" viewBox="0 0 1366 768"><g mask="url(&quot;#SvgjsMask1178&quot;)" fill="none"><rect width="1366" height="768" x="0" y="0" fill="url(#SvgjsLinearGradient1179)"></rect><path d="M696.89 826.23C806.11 789.15 708.76 512.57 988.15 468.41 1267.54 424.25 1399.95 121.69 1570.68 107.45" stroke="rgba(21, 115, 71, 1)" stroke-width="2"></path><path d="M668.82 774.99C830.64 659.29 816.16 77.07 1020.66 61.32 1225.16 45.57 1259.67 335.01 1372.5 353.16" stroke="rgba(21, 115, 71, 1)" stroke-width="2"></path><path d="M301 841.45C468.1 765.04 471.2 253.13 712.93 232.77 954.66 212.41 918.9 328.77 1124.86 328.77 1330.83 328.77 1431.05 233.4 1536.79 232.77" stroke="rgba(21, 115, 71, 1)" stroke-width="2"></path><path d="M790.04 883.97C911.53 787.09 831.97 328.07 1046.38 317.75 1260.79 307.43 1422.89 499.3 1559.06 502.07" stroke="rgba(21, 115, 71, 1)" stroke-width="2"></path><path d="M497.43 901.62C669.11 876.69 763.57 472.51 1041.8 471.25 1320.02 469.99 1441.24 667.81 1586.16 670.93" stroke="rgba(21, 115, 71, 1)" stroke-width="2"></path></g><defs><mask id="SvgjsMask1178"><rect width="1366" height="768" fill="#ffffff"></rect></mask><linearGradient x1="0%" y1="50%" x2="100%" y2="50%" gradientUnits="userSpaceOnUse" id="SvgjsLinearGradient1179"><stop stop-color="rgba(255, 255, 255, 1)" offset="0"></stop><stop stop-color="rgba(255, 255, 255, 1)" offset="0.82"></stop></linearGradient></defs></svg>