<svg xmlns="http://www.w3.org/2000/svg" version="1.1" xmlns:xlink="http://www.w3.org/1999/xlink" xmlns:svgjs="http://svgjs.com/svgjs" width="1366" height="768" preserveAspectRatio="none" viewBox="0 0 1366 768"><g mask="url(&quot;#SvgjsMask1074&quot;)" fill="none"><rect width="1366" height="768" x="0" y="0" fill="url(#SvgjsLinearGradient1075)"></rect><path d="M577.3 831.51C712.37 818.74 763.05 558.77 1031.58 534.63 1300.11 510.49 1352.39 261.85 1485.86 250.47" stroke="rgba(40, 167, 69, 1)" stroke-width="2"></path><path d="M628.4 783.54C730.07 782.43 794.25 686.75 1019.25 671.02 1244.25 655.29 1282.87 355.41 1410.1 333.1" stroke="rgba(40, 167, 69, 1)" stroke-width="2"></path><path d="M306.25 864.41C477.76 741.6 434.06 152.66 679 107.43 923.94 62.2 865.38 203.43 1051.76 203.43 1238.13 203.43 1328.28 108.2 1424.51 107.43" stroke="rgba(40, 167, 69, 1)" stroke-width="2"></path><path d="M795.36 920.89C904.4 834.12 838.88 418.75 1025.57 413.23 1212.27 407.71 1358.26 630.2 1486 635.95" stroke="rgba(40, 167, 69, 1)" stroke-width="2"></path><path d="M695.87 908.21C838.77 788.68 755.59 230.25 993.53 225.03 1231.46 219.81 1416.26 565.34 1588.84 578.31" stroke="rgba(40, 167, 69, 1)" stroke-width="2"></path></g><defs><mask id="SvgjsMask1074"><rect width="1366" height="768" fill="#ffffff"></rect></mask><linearGradient x1="0%" y1="50%" x2="100%" y2="50%" gradientUnits="userSpaceOnUse" id="SvgjsLinearGradient1075"><stop stop-color="rgba(255, 255, 255, 1)" offset="0"></stop><stop stop-color="rgba(255, 255, 255, 1)" offset="0"></stop></linearGradient></defs></svg>