<svg xmlns="http://www.w3.org/2000/svg" version="1.1" xmlns:xlink="http://www.w3.org/1999/xlink" xmlns:svgjs="http://svgjs.com/svgjs" width="1366" height="768" preserveAspectRatio="none" viewBox="0 0 1366 768"><g mask="url(&quot;#SvgjsMask1404&quot;)" fill="none"><rect width="1366" height="768" x="0" y="0" fill="url(#SvgjsLinearGradient1405)"></rect><path d="M1036.39-68.79C839.99-44.64 755.93 380.58 397.97 399.1 40 417.62-74.35 581.59-240.46 583.42" stroke="rgba(255, 255, 255, 1)" stroke-width="2"></path><path d="M1255.32-142.47C1129.6-130.99 1047.61 129.97 830.73 130.91 613.86 131.85 618.44 34.91 406.15 34.91 193.85 34.91 90.38 130.31-18.44 130.91" stroke="rgba(255, 255, 255, 1)" stroke-width="2"></path><path d="M896.25-15.69C735.25 12.27 692.71 385.18 400.79 410.67 108.87 436.16 38.82 606.64-94.67 610.35" stroke="rgba(255, 255, 255, 1)" stroke-width="2"></path><path d="M571.96-63.71C484.57-50.47 538.05 138.6 296.74 158.2 55.43 177.8-99.06 434.14-253.71 442.36" stroke="rgba(255, 255, 255, 1)" stroke-width="2"></path><path d="M1150.11-138.35C973.42-50.69 978.97 500.56 724.26 525.83 469.55 551.1 511.34 429.83 298.41 429.83 85.48 429.83-18.31 525.24-127.44 525.83" stroke="rgba(255, 255, 255, 1)" stroke-width="2"></path></g><defs><mask id="SvgjsMask1404"><rect width="1366" height="768" fill="#ffffff"></rect></mask><linearGradient x1="0%" y1="50%" x2="100%" y2="50%" gradientUnits="userSpaceOnUse" id="SvgjsLinearGradient1405"><stop stop-color="rgba(255, 255, 255, 1)" offset="0"></stop><stop stop-color="rgba(0, 82, 255, 1)" offset="0"></stop></linearGradient></defs></svg>