<svg xmlns="http://www.w3.org/2000/svg" version="1.1" xmlns:xlink="http://www.w3.org/1999/xlink" xmlns:svgjs="http://svgjs.com/svgjs" width="1366" height="768" preserveAspectRatio="none" viewBox="0 0 1366 768"><g mask="url(&quot;#SvgjsMask1010&quot;)" fill="none"><rect width="1366" height="768" x="0" y="0" fill="url(#SvgjsLinearGradient1011)"></rect><path d="M-124.95 223.36C-27.89 224.11 63.15 319.36 251.26 319.36 439.36 319.36 398.27 197.13 627.46 223.36 856.65 249.59 842.94 765.03 1003.67 853.52" stroke="rgba(40, 167, 69, 1)" stroke-width="2"></path><path d="M-135.51 360.05C38.31 370.33 221.79 678.31 477.72 690.29 733.65 702.27 701.91 809.71 784.34 811.9" stroke="rgba(40, 167, 69, 1)" stroke-width="2"></path><path d="M-223.98 338.09C-122.86 334.66-71.9 157.36 147.2 176.81 366.31 196.26 358.6 720 518.39 810.36" stroke="rgba(40, 167, 69, 1)" stroke-width="2"></path><path d="M-77.94 571.14C24.23 571.82 120.69 667.14 319.32 667.14 517.94 667.14 514.9 570.61 716.57 571.14 918.25 571.67 998.67 798.26 1113.83 806.92" stroke="rgba(40, 167, 69, 1)" stroke-width="2"></path><path d="M-223.87 240.14C-92.6 246.17 9.92 420.37 248.56 470.54 487.21 520.71 379.55 843.3 484.78 910.45" stroke="rgba(40, 167, 69, 1)" stroke-width="2"></path></g><defs><mask id="SvgjsMask1010"><rect width="1366" height="768" fill="#ffffff"></rect></mask><linearGradient x1="0%" y1="50%" x2="100%" y2="50%" gradientUnits="userSpaceOnUse" id="SvgjsLinearGradient1011"><stop stop-color="rgba(255, 255, 255, 1)" offset="0"></stop><stop stop-color="rgba(108, 117, 125, 1)" offset="0"></stop></linearGradient></defs></svg>