<svg xmlns="http://www.w3.org/2000/svg" version="1.1" xmlns:xlink="http://www.w3.org/1999/xlink" xmlns:svgjs="http://svgjs.com/svgjs" width="1366" height="768" preserveAspectRatio="none" viewBox="0 0 1366 768"><g mask="url(&quot;#SvgjsMask1010&quot;)" fill="none"><rect width="1366" height="768" x="0" y="0" fill="rgba(0, 82, 254, 1)"></rect><path d="M -452.82952432286635,518 C -361.63,477.8 -179.23,316.6 3.170475677133666,317 C 185.57,317.4 276.77,549.6 459.17047567713365,520 C 641.57,490.4 732.77,148.6 915.1704756771337,169 C 1097.57,189.4 1281,626 1371.1704756771337,622 C 1461.34,618 1367.03,243.6 1366,149" stroke="rgba(255, 255, 255, 1)" stroke-width="2"></path><path d="M -267.6001016436142,479 C -176.4,405 6,70.2 188.3998983563858,109 C 370.8,147.8 462,634 644.3998983563858,673 C 826.8,712 918,349.8 1100.3998983563858,304 C 1282.8,258.2 1503.28,440 1556.3998983563858,444 C 1609.52,448 1404.08,348 1366,324" stroke="rgba(255, 255, 255, 1)" stroke-width="2"></path><path d="M -423.07938655081887,309 C -331.88,350.2 -149.48,548.2 32.920613449181154,515 C 215.32,481.8 306.52,135 488.92061344918113,143 C 671.32,151 762.52,529 944.9206134491811,555 C 1127.32,581 1316.7,249.8 1400.9206134491812,273 C 1485.14,296.2 1372.98,591.4 1366,671" stroke="rgba(255, 255, 255, 1)" stroke-width="2"></path><path d="M -250.40571769181088,463 C -159.21,419.8 23.19,256.2 205.59428230818912,247 C 387.99,237.8 479.19,397 661.5942823081891,417 C 843.99,437 935.19,310.2 1117.5942823081891,347 C 1299.99,383.8 1523.91,608.4 1573.5942823081891,601 C 1623.28,593.6 1407.52,368.2 1366,310" stroke="rgba(255, 255, 255, 1)" stroke-width="2"></path></g><defs><mask id="SvgjsMask1010"><rect width="1366" height="768" fill="#ffffff"></rect></mask></defs></svg>