<svg xmlns="http://www.w3.org/2000/svg" version="1.1" xmlns:xlink="http://www.w3.org/1999/xlink" xmlns:svgjs="http://svgjs.com/svgjs" width="1366" height="768" preserveAspectRatio="none" viewBox="0 0 1366 768"><g mask="url(&quot;#SvgjsMask1027&quot;)" fill="none"><rect width="1366" height="768" x="0" y="0" fill="rgba(0, 82, 254, 1)"></rect><path d="M -77.55181718768819,463 C 13.65,443.2 196.05,350.2 378.4481828123118,364 C 560.85,377.8 652.05,568.2 834.4481828123119,532 C 1016.85,495.8 1108.05,154.4 1290.4481828123119,183 C 1472.85,211.6 1731.34,663.8 1746.4481828123119,675 C 1761.56,686.2 1442.09,326.2 1366,239" stroke="rgba(255, 255, 255, 1)" stroke-width="2"></path><path d="M -682.009163616194,107 C -590.81,178 -408.41,466 -226.00916361619403,462 C -43.61,458 47.59,68.2 229.99083638380597,87 C 412.39,105.8 503.59,514.8 685.990836383806,556 C 868.39,597.2 1005.99,313.8 1141.990836383806,293 C 1277.99,272.2 1321.2,420.2 1366,452" stroke="rgba(255, 255, 255, 1)" stroke-width="2"></path></g><defs><mask id="SvgjsMask1027"><rect width="1366" height="768" fill="#ffffff"></rect></mask></defs></svg>