<svg xmlns="http://www.w3.org/2000/svg" version="1.1" xmlns:xlink="http://www.w3.org/1999/xlink" xmlns:svgjs="http://svgjs.com/svgjs" width="1440" height="560" preserveAspectRatio="none" viewBox="0 0 1440 560"><g mask="url(&quot;#SvgjsMask1700&quot;)" fill="none"><rect width="1440" height="560" x="0" y="0" fill="url(#SvgjsLinearGradient1701)"></rect><path d="M0 0L325.1 0L0 208.27z" fill="rgba(255, 255, 255, .1)"></path><path d="M0 208.27L325.1 0L685.21 0L0 342.29z" fill="rgba(255, 255, 255, .075)"></path><path d="M0 342.29L685.21 0L1014.6600000000001 0L0 478z" fill="rgba(255, 255, 255, .05)"></path><path d="M0 478L1014.6600000000001 0L1188.01 0L0 492.14z" fill="rgba(255, 255, 255, .025)"></path><path d="M1440 560L1286.4 560L1440 534.6z" fill="rgba(0, 0, 0, .1)"></path><path d="M1440 534.6L1286.4 560L795.0900000000001 560L1440 517.28z" fill="rgba(0, 0, 0, .075)"></path><path d="M1440 517.28L795.09 560L768.89 560L1440 504.53999999999996z" fill="rgba(0, 0, 0, .05)"></path><path d="M1440 504.54L768.89 560L255.83000000000004 560L1440 399.1z" fill="rgba(0, 0, 0, .025)"></path></g><defs><mask id="SvgjsMask1700"><rect width="1440" height="560" fill="#ffffff"></rect></mask><linearGradient x1="84.72%" y1="139.29%" x2="15.28%" y2="-39.29%" gradientUnits="userSpaceOnUse" id="SvgjsLinearGradient1701"><stop stop-color="rgba(14, 42, 71, 0)" offset="0.01"></stop><stop stop-color="rgba(255, 151, 5, 0.46)" offset="1"></stop></linearGradient></defs></svg>