<svg xmlns="http://www.w3.org/2000/svg" version="1.1" xmlns:xlink="http://www.w3.org/1999/xlink" xmlns:svgjs="http://svgjs.com/svgjs" width="1366" height="768" preserveAspectRatio="none" viewBox="0 0 1366 768"><g mask="url(&quot;#SvgjsMask1722&quot;)" fill="none"><rect width="1366" height="768" x="0" y="0" fill="url(#SvgjsLinearGradient1723)"></rect><path d="M1366 0L748.9 0L1366 196.94z" fill="rgba(255, 255, 255, .1)"></path><path d="M748.9 0L1366 196.94L1366 231.95L682.9399999999999 0z" fill="rgba(255, 255, 255, .075)"></path><path d="M682.9399999999999 0L1366 231.95L1366 280.26L437.53 0z" fill="rgba(255, 255, 255, .05)"></path><path d="M437.53 0L1366 280.26L1366 477.98L261.38 0z" fill="rgba(255, 255, 255, .025)"></path><path d="M0 768L153.95 768L0 628.49z" fill="rgba(0, 0, 0, .1)"></path><path d="M0 628.49L153.95 768L282.98 768L0 417.49z" fill="rgba(0, 0, 0, .075)"></path><path d="M0 417.49L282.98 768L530.97 768L0 343.94z" fill="rgba(0, 0, 0, .05)"></path><path d="M0 343.94L530.97 768L950.75 768L0 98.47z" fill="rgba(0, 0, 0, .025)"></path></g><defs><mask id="SvgjsMask1722"><rect width="1366" height="768" fill="#ffffff"></rect></mask><linearGradient x1="10.94%" y1="119.47%" x2="89.06%" y2="-19.47%" gradientUnits="userSpaceOnUse" id="SvgjsLinearGradient1723"><stop stop-color="rgba(40, 167, 69, 1)" offset="0"></stop><stop stop-color="rgba(255, 255, 255, 1)" offset="1"></stop></linearGradient></defs></svg>