<svg xmlns="http://www.w3.org/2000/svg" version="1.1" xmlns:xlink="http://www.w3.org/1999/xlink" xmlns:svgjs="http://svgjs.com/svgjs" width="1440" height="560" preserveAspectRatio="none" viewBox="0 0 1440 560"><g mask="url(&quot;#SvgjsMask1682&quot;)" fill="none"><rect width="1440" height="560" x="0" y="0" fill="url(#SvgjsLinearGradient1683)"></rect><path d="M1440 0L829.39 0L1440 10.71z" fill="rgba(255, 255, 255, .1)"></path><path d="M829.39 0L1440 10.71L1440 102.53L502.71 0z" fill="rgba(255, 255, 255, .075)"></path><path d="M502.71000000000004 0L1440 102.53L1440 362.91999999999996L404.12 0z" fill="rgba(255, 255, 255, .05)"></path><path d="M404.1200000000001 0L1440 362.91999999999996L1440 411.43999999999994L348.54000000000013 0z" fill="rgba(255, 255, 255, .025)"></path><path d="M0 560L49 560L0 349.38z" fill="rgba(0, 0, 0, .1)"></path><path d="M0 349.38L49 560L261.78999999999996 560L0 227.64z" fill="rgba(0, 0, 0, .075)"></path><path d="M0 227.64L261.78999999999996 560L711.3599999999999 560L0 168.67z" fill="rgba(0, 0, 0, .05)"></path><path d="M0 168.66999999999996L711.3599999999999 560L1119.6399999999999 560L0 143.10999999999996z" fill="rgba(0, 0, 0, .025)"></path></g><defs><mask id="SvgjsMask1682"><rect width="1440" height="560" fill="#ffffff"></rect></mask><linearGradient x1="15.28%" y1="139.29%" x2="84.72%" y2="-39.29%" gradientUnits="userSpaceOnUse" id="SvgjsLinearGradient1683"><stop stop-color="rgba(14, 42, 71, 0)" offset="0.01"></stop><stop stop-color="rgba(255, 151, 5, 0.46)" offset="1"></stop></linearGradient></defs></svg>